<svg width="55" height="47" viewBox="0 0 55 47" fill="none" xmlns="http://www.w3.org/2000/svg">
<mask id="path-1-outside-1_7_223" maskUnits="userSpaceOnUse" x="0" y="0" width="55" height="47" fill="black">
<rect fill="white" width="55" height="47"/>
<path d="M40.3615 44.6C36.4948 44.6 33.6948 43.2667 31.9615 40.6C30.2281 37.9333 29.3615 34.8667 29.3615 31.4C29.3615 29.4 29.6281 27.2 30.1615 24.8C30.6948 22.4 31.6948 20 33.1615 17.6C34.7615 15.0667 36.9615 12.6 39.7615 10.2C42.5615 7.66667 46.2948 5.26666 50.9615 3L52.1615 4.8C49.4948 7.33333 47.3615 9.53333 45.7615 11.4C44.2948 13.2667 43.1615 15 42.3615 16.6C41.5615 18.2 41.0281 19.6667 40.7615 21C40.6281 22.3333 40.5615 23.7333 40.5615 25.2C40.5615 26.2667 40.8948 27.0667 41.5615 27.6C42.2281 28 42.9615 28.5333 43.7615 29.2C44.9615 30 46.0281 30.8 46.9615 31.6C48.0281 32.2667 48.5615 33.7333 48.5615 36C48.5615 38.4 47.7615 40.4667 46.1615 42.2C44.5615 43.8 42.6281 44.6 40.3615 44.6ZM13.9615 44.6C10.0948 44.6 7.22815 43.2667 5.36148 40.6C3.62815 37.9333 2.76148 34.8667 2.76148 31.4C2.76148 29.4 3.02815 27.2667 3.56148 25C4.09481 22.6 5.16148 20.1333 6.76148 17.6C8.36148 15.0667 10.5615 12.6 13.3615 10.2C16.1615 7.66667 19.8948 5.26666 24.5615 3L25.7615 4.8C23.0948 7.33333 20.9615 9.53333 19.3615 11.4C17.8948 13.2667 16.7615 15 15.9615 16.6C15.1615 18.2 14.6281 19.6667 14.3615 21C14.2281 22.3333 14.1615 23.7333 14.1615 25.2C14.1615 26.2667 14.4281 27.0667 14.9615 27.6C15.6281 28.1333 16.3615 28.6 17.1615 29C18.2281 29.6667 19.2948 30.4667 20.3615 31.4C21.5615 32.2 22.1615 33.7333 22.1615 36C22.1615 38.4 21.3615 40.4667 19.7615 42.2C18.2948 43.8 16.3615 44.6 13.9615 44.6Z"/>
</mask>
<path d="M40.3615 44.6C36.4948 44.6 33.6948 43.2667 31.9615 40.6C30.2281 37.9333 29.3615 34.8667 29.3615 31.4C29.3615 29.4 29.6281 27.2 30.1615 24.8C30.6948 22.4 31.6948 20 33.1615 17.6C34.7615 15.0667 36.9615 12.6 39.7615 10.2C42.5615 7.66667 46.2948 5.26666 50.9615 3L52.1615 4.8C49.4948 7.33333 47.3615 9.53333 45.7615 11.4C44.2948 13.2667 43.1615 15 42.3615 16.6C41.5615 18.2 41.0281 19.6667 40.7615 21C40.6281 22.3333 40.5615 23.7333 40.5615 25.2C40.5615 26.2667 40.8948 27.0667 41.5615 27.6C42.2281 28 42.9615 28.5333 43.7615 29.2C44.9615 30 46.0281 30.8 46.9615 31.6C48.0281 32.2667 48.5615 33.7333 48.5615 36C48.5615 38.4 47.7615 40.4667 46.1615 42.2C44.5615 43.8 42.6281 44.6 40.3615 44.6ZM13.9615 44.6C10.0948 44.6 7.22815 43.2667 5.36148 40.6C3.62815 37.9333 2.76148 34.8667 2.76148 31.4C2.76148 29.4 3.02815 27.2667 3.56148 25C4.09481 22.6 5.16148 20.1333 6.76148 17.6C8.36148 15.0667 10.5615 12.6 13.3615 10.2C16.1615 7.66667 19.8948 5.26666 24.5615 3L25.7615 4.8C23.0948 7.33333 20.9615 9.53333 19.3615 11.4C17.8948 13.2667 16.7615 15 15.9615 16.6C15.1615 18.2 14.6281 19.6667 14.3615 21C14.2281 22.3333 14.1615 23.7333 14.1615 25.2C14.1615 26.2667 14.4281 27.0667 14.9615 27.6C15.6281 28.1333 16.3615 28.6 17.1615 29C18.2281 29.6667 19.2948 30.4667 20.3615 31.4C21.5615 32.2 22.1615 33.7333 22.1615 36C22.1615 38.4 21.3615 40.4667 19.7615 42.2C18.2948 43.8 16.3615 44.6 13.9615 44.6Z" fill="#A8DADC"/>
<path d="M31.9615 40.6L33.6384 39.51H33.6384L31.9615 40.6ZM30.1615 24.8L28.2091 24.3661L28.2091 24.3661L30.1615 24.8ZM33.1615 17.6L31.4705 16.532L31.4626 16.5445L31.4549 16.5571L33.1615 17.6ZM39.7615 10.2L41.0631 11.7185L41.0834 11.7011L41.1033 11.6831L39.7615 10.2ZM50.9615 3L52.6256 1.89059L51.6575 0.438488L50.0877 1.20098L50.9615 3ZM52.1615 4.8L53.539 6.25L54.7591 5.09088L53.8256 3.6906L52.1615 4.8ZM45.7615 11.4L44.243 10.0984L44.2152 10.1308L44.1888 10.1644L45.7615 11.4ZM42.3615 16.6L44.1503 17.4944H44.1503L42.3615 16.6ZM40.7615 21L38.8003 20.6078L38.7811 20.7037L38.7714 20.801L40.7615 21ZM41.5615 27.6L40.3121 29.1617L40.4171 29.2458L40.5325 29.315L41.5615 27.6ZM43.7615 29.2L42.4811 30.7364L42.5632 30.8048L42.6521 30.8641L43.7615 29.2ZM46.9615 31.6L45.6599 33.1185L45.774 33.2163L45.9015 33.296L46.9615 31.6ZM46.1615 42.2L47.5757 43.6142L47.604 43.5859L47.6311 43.5566L46.1615 42.2ZM5.36148 40.6L3.68459 41.69L3.70331 41.7188L3.72301 41.7469L5.36148 40.6ZM3.56148 25L5.50831 25.4581L5.51116 25.446L5.51385 25.4339L3.56148 25ZM6.76148 17.6L8.45246 18.668L6.76148 17.6ZM13.3615 10.2L14.6631 11.7185L14.6834 11.7011L14.7033 11.6831L13.3615 10.2ZM24.5615 3L26.2256 1.89059L25.2575 0.438488L23.6877 1.20098L24.5615 3ZM25.7615 4.8L27.139 6.25L28.3591 5.09088L27.4256 3.6906L25.7615 4.8ZM19.3615 11.4L17.843 10.0984L17.8152 10.1308L17.7888 10.1644L19.3615 11.4ZM15.9615 16.6L17.7503 17.4944L17.7503 17.4944L15.9615 16.6ZM14.3615 21L12.4003 20.6078L12.3811 20.7037L12.3714 20.801L14.3615 21ZM14.9615 27.6L13.5473 29.0142L13.6256 29.0925L13.7121 29.1617L14.9615 27.6ZM17.1615 29L18.2215 27.304L18.1409 27.2536L18.0559 27.2111L17.1615 29ZM20.3615 31.4L19.0445 32.9052L19.1431 32.9914L19.2521 33.0641L20.3615 31.4ZM19.7615 42.2L18.2919 40.8434L18.2872 40.8485L19.7615 42.2ZM40.3615 44.6V42.6C37.0039 42.6 34.9198 41.4814 33.6384 39.51L31.9615 40.6L30.2846 41.69C32.4699 45.0519 35.9857 46.6 40.3615 46.6V44.6ZM31.9615 40.6L33.6384 39.51C32.1348 37.1969 31.3615 34.516 31.3615 31.4H29.3615H27.3615C27.3615 35.2173 28.3215 38.6698 30.2846 41.69L31.9615 40.6ZM29.3615 31.4H31.3615C31.3615 29.5746 31.6053 27.5225 32.1139 25.2338L30.1615 24.8L28.2091 24.3661C27.651 26.8775 27.3615 29.2253 27.3615 31.4H29.3615ZM30.1615 24.8L32.1139 25.2339C32.593 23.0775 33.5 20.8815 34.868 18.6429L33.1615 17.6L31.4549 16.5571C29.8896 19.1185 28.7966 21.7224 28.2091 24.3661L30.1615 24.8ZM33.1615 17.6L34.8525 18.668C36.3246 16.3371 38.3811 14.0174 41.0631 11.7185L39.7615 10.2L38.4599 8.68148C35.5419 11.1826 33.1984 13.7962 31.4705 16.532L33.1615 17.6ZM39.7615 10.2L41.1033 11.6831C43.7217 9.31404 47.2801 7.01154 51.8353 4.79901L50.9615 3L50.0877 1.20098C45.3095 3.52179 41.4013 6.01929 38.4197 8.71693L39.7615 10.2ZM50.9615 3L49.2974 4.10939L50.4974 5.9094L52.1615 4.8L53.8256 3.6906L52.6256 1.89059L50.9615 3ZM52.1615 4.8L50.784 3.35C48.0895 5.90977 45.9033 8.1613 44.243 10.0984L45.7615 11.4L47.28 12.7016C48.8196 10.9054 50.9001 8.75689 53.539 6.25L52.1615 4.8ZM45.7615 11.4L44.1888 10.1644C42.6641 12.105 41.4489 13.953 40.5726 15.7056L42.3615 16.6L44.1503 17.4944C44.8741 16.047 45.9256 14.4283 47.3341 12.6356L45.7615 11.4ZM42.3615 16.6L40.5726 15.7056C39.7166 17.4177 39.1108 19.0552 38.8003 20.6078L40.7615 21L42.7226 21.3922C42.9455 20.2781 43.4064 18.9823 44.1503 17.4944L42.3615 16.6ZM40.7615 21L38.7714 20.801C38.6309 22.2063 38.5615 23.673 38.5615 25.2H40.5615H42.5615C42.5615 23.7936 42.6254 22.4604 42.7516 21.199L40.7615 21ZM40.5615 25.2H38.5615C38.5615 26.7081 39.0549 28.156 40.3121 29.1617L41.5615 27.6L42.8109 26.0382C42.7348 25.9774 42.5615 25.8253 42.5615 25.2H40.5615ZM41.5615 27.6L40.5325 29.315C41.087 29.6477 41.7355 30.1151 42.4811 30.7364L43.7615 29.2L45.0418 27.6635C44.1875 26.9516 43.3693 26.3523 42.5905 25.885L41.5615 27.6ZM43.7615 29.2L42.6521 30.8641C43.7963 31.6269 44.797 32.3789 45.6599 33.1185L46.9615 31.6L48.2631 30.0815C47.2593 29.2211 46.1267 28.3731 44.8709 27.5359L43.7615 29.2ZM46.9615 31.6L45.9015 33.296C46.0359 33.38 46.5615 33.8773 46.5615 36H48.5615H50.5615C50.5615 33.5894 50.0204 31.1533 48.0215 29.904L46.9615 31.6ZM48.5615 36H46.5615C46.5615 37.9069 45.9443 39.4866 44.6919 40.8434L46.1615 42.2L47.6311 43.5566C49.5786 41.4467 50.5615 38.8931 50.5615 36H48.5615ZM46.1615 42.2L44.7473 40.7858C43.5231 42.01 42.0988 42.6 40.3615 42.6V44.6V46.6C43.1575 46.6 45.5999 45.59 47.5757 43.6142L46.1615 42.2ZM13.9615 44.6V42.6C10.6074 42.6 8.41865 41.4798 6.99994 39.4531L5.36148 40.6L3.72301 41.7469C6.03764 45.0535 9.58224 46.6 13.9615 46.6V44.6ZM5.36148 40.6L7.03837 39.51C5.53483 37.1969 4.76148 34.516 4.76148 31.4H2.76148H0.761478C0.761478 35.2173 1.72146 38.6698 3.68459 41.69L5.36148 40.6ZM2.76148 31.4H4.76148C4.76148 29.577 5.00468 27.5985 5.50831 25.4581L3.56148 25L1.61465 24.5419C1.05161 26.9348 0.761478 29.223 0.761478 31.4H2.76148ZM3.56148 25L5.51385 25.4339C5.98764 23.3018 6.94944 21.0478 8.45246 18.668L6.76148 17.6L5.0705 16.532C3.37352 19.2189 2.20198 21.8982 1.6091 24.5661L3.56148 25ZM6.76148 17.6L8.45246 18.668C9.9246 16.3371 11.9811 14.0174 14.6631 11.7185L13.3615 10.2L12.0599 8.68148C9.14188 11.1826 6.79836 13.7962 5.0705 16.532L6.76148 17.6ZM13.3615 10.2L14.7033 11.6831C17.3217 9.31404 20.8801 7.01154 25.4353 4.79901L24.5615 3L23.6877 1.20098C18.9095 3.52179 15.0013 6.01929 12.0197 8.71693L13.3615 10.2ZM24.5615 3L22.8974 4.1094L24.0974 5.9094L25.7615 4.8L27.4256 3.6906L26.2256 1.89059L24.5615 3ZM25.7615 4.8L24.384 3.35C21.6895 5.90977 19.5033 8.1613 17.843 10.0984L19.3615 11.4L20.88 12.7016C22.4196 10.9054 24.5001 8.75689 27.139 6.25L25.7615 4.8ZM19.3615 11.4L17.7888 10.1644C16.2641 12.105 15.0489 13.953 14.1726 15.7056L15.9615 16.6L17.7503 17.4944C18.4741 16.047 19.5256 14.4283 20.9341 12.6356L19.3615 11.4ZM15.9615 16.6L14.1726 15.7056C13.3166 17.4177 12.7108 19.0552 12.4003 20.6078L14.3615 21L16.3226 21.3922C16.5455 20.2781 17.0064 18.9823 17.7503 17.4944L15.9615 16.6ZM14.3615 21L12.3714 20.801C12.2309 22.2063 12.1615 23.673 12.1615 25.2H14.1615H16.1615C16.1615 23.7936 16.2254 22.4604 16.3516 21.199L14.3615 21ZM14.1615 25.2H12.1615C12.1615 26.575 12.5066 27.9735 13.5473 29.0142L14.9615 27.6L16.3757 26.1858C16.3497 26.1598 16.1615 25.9584 16.1615 25.2H14.1615ZM14.9615 27.6L13.7121 29.1617C14.4938 29.7871 15.347 30.3288 16.267 30.7888L17.1615 29L18.0559 27.2111C17.3759 26.8711 16.7624 26.4795 16.2109 26.0383L14.9615 27.6ZM17.1615 29L16.1015 30.696C17.067 31.2994 18.0483 32.0335 19.0445 32.9052L20.3615 31.4L21.6785 29.8949C20.5413 28.8998 19.3893 28.0339 18.2215 27.304L17.1615 29ZM20.3615 31.4L19.2521 33.0641C19.6313 33.3169 20.1615 34.0052 20.1615 36H22.1615H24.1615C24.1615 33.4615 23.4916 31.0831 21.4709 29.7359L20.3615 31.4ZM22.1615 36H20.1615C20.1615 37.9069 19.5443 39.4866 18.2919 40.8434L19.7615 42.2L21.2311 43.5566C23.1786 41.4467 24.1615 38.8931 24.1615 36H22.1615ZM19.7615 42.2L18.2872 40.8485C17.2417 41.9891 15.8668 42.6 13.9615 42.6V44.6V46.6C16.8561 46.6 19.3479 45.6109 21.2358 43.5514L19.7615 42.2Z" fill="#A8DADC" mask="url(#path-1-outside-1_7_223)"/>
</svg>
