<svg width="48" height="50" viewBox="0 0 48 50" fill="none" xmlns="http://www.w3.org/2000/svg">
<path d="M47.3141 48.6188C46.1381 45.9835 44.5331 43.4719 42.4734 41.051C42.1391 39.5349 40.3351 32.2957 35.4113 27.1677C34.2838 25.9934 33.1162 24.9584 31.8426 24.0043C30.8413 23.1552 30.3402 23.1314 29.9816 23.2204C29.6471 23.3038 29.3719 23.545 29.2455 23.8656C29.1662 24.0667 29.1177 24.2901 29.0833 24.5344C28.271 22.7155 27.2766 21.1581 26.3174 20.6919C24.3426 19.7319 22.0086 18.6224 19.6712 17.6722C15.3382 15.9108 11.8623 13.0777 9.33994 9.25183C7.92969 7.11276 7.22871 5.24382 6.96035 4.4194C7.0499 3.32849 7.43789 2.1903 7.95088 1.66931C8.33096 1.28308 8.32607 0.661982 7.93994 0.281904C7.55371 -0.0982722 6.93252 -0.0931941 6.55254 0.292743C5.78349 1.07399 5.29365 2.35808 5.08994 3.61784C4.99619 3.74235 4.93056 3.88991 4.90459 4.05231C4.8791 4.21198 4.854 4.37028 4.82969 4.52731C3.70273 11.7748 3.7334 16.3837 6.95615 22.9733C6.99912 23.0613 7.05508 23.1423 7.12217 23.2137C7.3872 23.4961 7.67217 23.7652 7.98183 24.0246C7.96709 24.039 7.95273 24.054 7.93886 24.0695C7.68125 24.3566 7.61572 24.768 7.77158 25.121C7.84004 25.276 7.90693 25.4285 7.97275 25.5785C8.75869 27.3696 9.4374 28.9163 10.8094 30.3938C11.5457 31.1867 12.3021 31.6486 12.9101 32.0198C13.0446 32.102 13.173 32.1802 13.2931 32.2579C14.2465 32.8749 15.9034 33.4088 17.679 33.8426C17.475 33.9899 17.3771 34.189 17.3307 34.3358C17.1932 34.7699 17.3712 35.2404 17.7636 35.48C22.5024 38.3726 26.926 39.3996 31.0005 40.0786C31.9954 40.2443 35.1587 40.9836 37.7264 41.5962C35.9411 42.0154 33.885 42.1922 31.8093 42.0813C31.268 42.0542 30.8062 42.4679 30.7774 43.009C30.7486 43.5501 31.164 44.012 31.705 44.0408C32.1381 44.0638 32.5711 44.0751 33.002 44.0751C36.0368 44.0751 38.9704 43.5121 41.1344 42.5062C42.9979 44.7274 44.4529 47.0222 45.5223 49.4186C45.6852 49.7836 46.0434 50.0002 46.4187 50.0002C46.5523 50.0002 46.6881 49.9726 46.818 49.9147C47.3126 49.6938 47.5348 49.1136 47.3141 48.6188ZM39.4978 37.9155C38.2534 36.7304 36.8896 35.5648 35.4029 34.4145C35.5227 33.1552 35.2026 31.0847 34.9088 29.5513C37.1669 32.2699 38.6234 35.4778 39.4978 37.9155ZM25.4594 22.4565C25.9044 22.6775 27.2241 24.5623 28.258 27.9175C28.3413 28.188 28.5373 28.4092 28.7957 28.5245C29.054 28.6397 29.3497 28.638 29.6066 28.5194C30.6443 28.0405 30.8449 26.8053 30.937 25.7801C31.7819 26.4296 32.5781 27.1217 33.3492 27.8752C33.6162 28.9911 34.1942 31.7776 34.2487 33.5429C30.7891 30.9903 27.0662 28.7503 23.4622 26.5829C22.6061 26.0681 21.7359 25.5447 20.8655 25.0149C19.768 23.1772 19.0633 20.7484 18.7291 19.4045C18.7971 19.4328 18.8637 19.4619 18.9322 19.4897C21.2165 20.4185 23.5137 21.5106 25.4594 22.4565ZM17.3799 18.7976C17.5128 19.4349 18.0175 21.675 18.9542 23.8385C18.678 23.6664 18.4024 23.4937 18.1288 23.3206C16.4997 22.2897 14.6315 21.0653 13.0783 19.577C11.3548 17.9257 9.46377 14.8985 8.20937 11.0704C9.99795 13.572 12.9072 16.6228 17.3799 18.7976ZM11.3653 23.9034C10.2016 23.2904 9.33506 22.675 8.65234 21.9751C6.68574 17.9136 6.02627 14.7176 6.12519 10.9804C6.5542 12.4057 7.08281 13.7885 7.70361 15.0956C8.85566 17.5209 10.2822 19.6155 11.7207 20.9937C13.405 22.6076 15.3699 23.8968 17.0795 24.9785C18.8555 26.1023 20.6834 27.2015 22.4511 28.2645C22.6973 28.4126 22.9441 28.561 23.1913 28.7098C22.0279 28.6097 20.9046 28.6355 19.8499 28.6602C18.9381 28.6814 18.0766 28.7014 17.2537 28.6445C15.9052 28.551 12.677 28.2743 11.5282 28.1751C11.0215 27.4644 10.6319 26.7049 10.243 25.8548C10.5209 25.8374 10.8183 25.7983 11.127 25.7277C11.527 25.6361 11.8278 25.3052 11.881 24.8984C11.9341 24.4917 11.7283 24.0947 11.3653 23.9034ZM22.3479 35.6579C23.3765 35.5756 24.4119 35.383 25.217 34.9834C25.6075 34.7895 25.8232 34.3612 25.7466 33.9321C25.6699 33.5029 25.3191 33.1758 24.8856 33.1293C22.1113 32.831 16.1755 31.7861 14.3588 30.6105C14.2211 30.5215 14.0808 30.4358 13.9323 30.345C13.5301 30.0994 13.0872 29.8286 12.6562 29.4535C14.114 29.5776 16.1631 29.749 17.1723 29.819C18.0496 29.8799 18.9374 29.8592 19.8773 29.8373C21.9511 29.789 24.0926 29.7391 26.2772 30.5867C28.6861 32.0744 31.082 33.6273 33.3397 35.3102C35.3106 36.7794 37.0652 38.2697 38.6144 39.7904C35.9563 39.1544 32.4362 38.3284 31.3228 38.1428C28.4939 37.6716 25.4929 37.0266 22.3479 35.6579Z" fill="#457B9D"/>
<path d="M3.82205 33.0812L3.01619 35.3472C2.98171 35.4441 2.91335 35.5211 2.82722 35.5599L0.81394 36.4669C0.529468 36.595 0.529468 37.0482 0.81394 37.1764L2.82722 38.0834C2.91345 38.1223 2.98171 38.1991 3.01619 38.2961L3.82205 40.5621C3.93591 40.8822 4.33855 40.8822 4.45242 40.5621L5.25828 38.2961C5.29275 38.1991 5.36111 38.1222 5.44724 38.0834L7.46052 37.1764C7.74499 37.0482 7.74499 36.595 7.46052 36.4669L5.44724 35.5599C5.36101 35.521 5.29275 35.4441 5.25828 35.3472L4.45242 33.0812C4.33855 32.761 3.93591 32.761 3.82205 33.0812Z" fill="#457B9D"/>
<path d="M19.7256 1.74673L19.1278 3.42759C19.1022 3.49956 19.0516 3.55659 18.9876 3.5854L17.4941 4.25825C17.2832 4.35327 17.2832 4.6895 17.4941 4.78452L18.9876 5.45737C19.0516 5.48618 19.1021 5.54321 19.1278 5.61519L19.7256 7.29605C19.8101 7.53355 20.1087 7.53355 20.1932 7.29605L20.7909 5.61519C20.8165 5.54321 20.8672 5.48618 20.9312 5.45737L22.4246 4.78452C22.6355 4.6894 22.6355 4.35327 22.4246 4.25825L20.9312 3.5854C20.8672 3.55659 20.8165 3.49956 20.7909 3.42759L20.1932 1.74673C20.1087 1.50923 19.8101 1.50923 19.7256 1.74673Z" fill="#457B9D"/>
<path d="M36.0717 17.066C36.0717 18.0379 36.8595 18.8257 37.8313 18.8257C38.8032 18.8257 39.591 18.0379 39.591 17.066C39.591 16.0942 38.8032 15.3064 37.8313 15.3063C36.8594 15.3063 36.0717 16.0942 36.0717 17.066Z" fill="#457B9D"/>
<path d="M26.3411 14.5706C26.3411 14.9769 26.6705 15.3064 27.0769 15.3064C27.4833 15.3064 27.8127 14.977 27.8127 14.5706C27.8127 14.1642 27.4834 13.8347 27.0769 13.8347C26.6705 13.8347 26.3411 14.1641 26.3411 14.5706Z" fill="#457B9D"/>
</svg>
