<svg width="100" height="100" viewBox="0 0 100 100" fill="none" xmlns="http://www.w3.org/2000/svg">
<g clip-path="url(#clip0_173_197)">
<path d="M77.0898 95.5273C82.1812 95.5273 86.3086 91.4 86.3086 86.3086C86.3086 81.2172 82.1812 77.0898 77.0898 77.0898C71.9985 77.0898 67.8711 81.2172 67.8711 86.3086C67.8711 91.4 71.9985 95.5273 77.0898 95.5273Z" fill="#5A9AAF"/>
<path d="M96.2695 97.6758C98.3298 97.6758 100 96.0056 100 93.9453C100 91.885 98.3298 90.2148 96.2695 90.2148C94.2093 90.2148 92.5391 91.885 92.5391 93.9453C92.5391 96.0056 94.2093 97.6758 96.2695 97.6758Z" fill="#5A9AAF"/>
<path d="M38.5742 44.6484C38.4961 44.1992 38.3789 43.7695 38.2422 43.3398C38.125 42.9687 37.9688 42.6172 37.7539 42.2656C37.5977 41.9922 37.4023 41.7578 37.168 41.5625C36.9727 41.4063 36.7187 41.3477 36.4648 41.3867C36.2109 41.4453 35.9766 41.6016 35.8398 41.8359C35.6641 42.1289 35.5469 42.4609 35.5078 42.793C35.4297 43.2227 35.4102 43.6523 35.4492 44.0625C35.5078 45.0195 35.6836 45.957 35.9961 46.8555C36.1328 47.2656 36.3086 47.6562 36.5039 48.0273C36.6602 48.3203 36.875 48.5937 37.1289 48.8086C37.3242 48.9844 37.5781 49.0625 37.832 49.0234C38.1055 48.9648 38.3203 48.7891 38.4375 48.5352C38.5938 48.2031 38.6914 47.8711 38.75 47.5C38.8086 47.0508 38.8281 46.582 38.7891 46.1328C38.75 45.6641 38.6719 45.1563 38.5742 44.6484Z" fill="#5A9AAF"/>
<path d="M50.8204 38.2421C50.6056 37.91 50.3712 37.7538 50.0978 37.8124C49.922 37.8319 49.7462 37.9296 49.6095 38.0663C49.4923 38.203 49.4142 38.3593 49.3751 38.535C49.3361 38.7303 49.3361 38.9452 49.3556 39.1405C49.3751 39.3749 49.4142 39.6093 49.4533 39.8241C49.5119 40.1171 49.5704 40.3905 49.6486 40.6444C49.7267 40.8983 49.7658 41.1522 49.8048 41.3475C49.8634 41.5038 49.922 41.6405 50.0197 41.7772C50.0978 41.8749 50.1954 41.9725 50.3126 42.0311C50.4298 42.1093 50.5665 42.1288 50.7033 42.0897C50.879 42.0507 51.0353 41.953 51.1134 41.7772C51.2306 41.5819 51.2892 41.3671 51.3283 41.1522C51.3673 40.8788 51.3869 40.5858 51.3673 40.3124C51.3673 40.0194 51.3283 39.7264 51.2697 39.4335C51.2111 39.0428 51.0548 38.6132 50.8204 38.2421Z" fill="#5A9AAF"/>
<path d="M24.6484 47.3437C24.5703 46.8945 24.4531 46.4648 24.3164 46.0351C24.1992 45.664 24.043 45.2929 23.8281 44.9609C23.6719 44.6874 23.4766 44.453 23.2422 44.2577C23.0469 44.1015 22.793 44.0234 22.5391 44.082C22.2852 44.1405 22.0508 44.2968 21.9141 44.5312C21.7383 44.8241 21.6211 45.1562 21.582 45.4882C21.5234 45.9179 21.5039 46.328 21.5234 46.7577C21.582 47.7148 21.7578 48.6523 22.0703 49.5507C22.207 49.9609 22.3828 50.3515 22.5781 50.7226C22.7344 51.0156 22.9492 51.289 23.2031 51.5038C23.3984 51.6796 23.6523 51.7577 23.9063 51.7187C24.1797 51.6601 24.3945 51.4843 24.5117 51.2304C24.668 50.8984 24.7656 50.5663 24.8242 50.1952C24.8828 49.746 24.9023 49.2773 24.8633 48.828C24.8242 48.3398 24.7461 47.8515 24.6484 47.3437Z" fill="#5A9AAF"/>
<path d="M93.8086 33.8086C92.5976 27.5196 86.0742 23.3985 78.8476 24.0821C82.3633 18.418 80.625 11.4649 74.5898 8.02739C68.5546 4.58989 60.332 5.83989 55.4687 10.7422C53.4765 4.80474 46.5234 1.23052 39.2187 2.6563C31.914 4.08208 26.7773 9.96099 27.1484 16.211C20.8203 13.4766 12.7148 15.3711 8.3984 20.8204C4.082 26.2696 5.07809 33.3594 10.4492 37.3047C3.49606 39.375 -1.01566 45.625 0.195277 51.9141C1.40621 58.2032 7.92965 62.3243 15.1562 61.6407C11.6406 67.3047 13.3789 74.2579 19.414 77.6954C25.4492 81.1329 33.6718 79.8829 38.5351 74.9805C40.5273 80.918 47.4804 84.4922 54.7851 83.0665C62.0898 81.6407 67.207 75.7422 66.8554 69.4922C73.1836 72.2266 81.289 70.3321 85.6054 64.8829C89.9218 59.4336 88.9257 52.3438 83.5546 48.3985C90.5078 46.3282 95.0195 40.0782 93.8086 33.8086ZM29.9218 49.004C29.8437 50.0977 29.5703 51.1719 29.1406 52.168C28.7304 53.1251 28.125 53.9844 27.3632 54.6876C26.582 55.4102 25.6054 55.879 24.5507 56.0547C23.5547 56.2696 22.539 56.1915 21.582 55.8594C20.664 55.5274 19.8437 55.0001 19.1601 54.3165C18.4375 53.5938 17.8515 52.754 17.4023 51.836C16.9336 50.879 16.582 49.8438 16.3867 48.7891C16.1718 47.754 16.1132 46.6797 16.2109 45.6251C16.289 44.6094 16.5625 43.6133 16.9922 42.6758C17.4218 41.7774 18.0273 40.9766 18.789 40.3516C19.6484 39.668 20.664 39.1993 21.7578 39.0235C23.6718 38.5743 25.7031 39.1211 27.1289 40.4883C27.8125 41.1329 28.3789 41.9141 28.8086 42.7735C29.2578 43.6719 29.5703 44.629 29.7656 45.6251C29.9609 46.7383 30.0195 47.8711 29.9218 49.004ZM43.8476 46.3086C43.7695 47.4024 43.4961 48.4766 43.0664 49.4727C42.6562 50.4297 42.0507 51.2891 41.289 51.9922C40.5078 52.7149 39.5312 53.1836 38.4765 53.3594C37.4804 53.5743 36.4648 53.4961 35.5078 53.1641C34.5898 52.8321 33.7695 52.3047 33.0859 51.6211C32.3632 50.8985 31.7578 50.0586 31.3086 49.1407C30.8398 48.1836 30.4882 47.1485 30.2929 46.0938C30.0976 45.0391 30.039 43.9844 30.1172 42.9102C30.1953 41.8946 30.4492 40.8985 30.8789 39.961C31.3086 39.0626 31.914 38.2618 32.6757 37.6368C33.5351 36.9532 34.5507 36.4844 35.6445 36.3086C37.5586 35.8594 39.5898 36.4063 41.0156 37.7735C41.7187 38.418 42.2851 39.1993 42.6953 40.0586C43.1445 40.9571 43.457 41.9141 43.6523 42.9102C43.8867 44.0235 43.9453 45.1758 43.8476 46.3086ZM57.0703 40.6446C57.0117 41.4844 56.8164 42.3243 56.4843 43.1055C56.1718 43.8477 55.7226 44.5118 55.1172 45.0586C54.5117 45.6055 53.75 45.9766 52.9492 46.1133C52.5586 46.1915 52.1679 46.211 51.7578 46.1915C51.4257 46.1719 51.0937 46.0938 50.7617 45.9961C50.9179 46.6407 51.0547 47.2266 51.1523 47.754C51.25 48.2813 51.3672 48.7305 51.4453 49.1016C51.5429 49.5508 51.6406 49.9415 51.7187 50.293L46.5234 51.6993C46.4453 51.1524 46.3476 50.6055 46.2304 50.0782C46.1328 49.5313 46.0156 49.004 45.9179 48.4571C45.5859 46.7383 45.2343 45.0977 44.8828 43.5157C44.5312 41.9336 44.1992 40.5469 43.8867 39.3165C43.5351 37.8907 43.1836 36.543 42.832 35.293L48.5351 33.8672C48.5351 34.004 48.5547 34.1211 48.5742 34.2579L48.6132 34.4922C48.6328 34.629 48.6523 34.7461 48.6718 34.8829C48.9257 34.4727 49.2382 34.1211 49.5898 33.8086C50.039 33.4376 50.5859 33.1836 51.1718 33.086C51.875 32.9297 52.5976 32.9688 53.2812 33.1836C53.9062 33.3985 54.4922 33.75 54.9609 34.2188C55.4687 34.7071 55.8789 35.293 56.1718 35.9375C56.5039 36.6211 56.7383 37.3438 56.875 38.086C57.0703 38.9063 57.1289 39.7852 57.0703 40.6446ZM71.0156 43.418C70.9179 44.0626 70.7031 44.6875 70.3906 45.254C70 45.918 69.4922 46.4844 68.8672 46.9336C68.0859 47.4805 67.1875 47.8516 66.2304 48.0079C65.3125 48.2032 64.3554 48.3008 63.3984 48.2813C62.7343 48.2618 62.0898 48.1836 61.4453 48.0469C60.9179 47.9297 60.4101 47.7344 59.9414 47.4415L60.0976 43.3008C60.8203 43.3594 61.5234 43.3594 62.2461 43.3399C62.7734 43.3204 63.3007 43.2618 63.8281 43.1641C64.1992 43.1055 64.5703 43.0079 64.9218 42.8711C65.1562 42.793 65.3711 42.6758 65.5859 42.5391C65.7421 42.4415 65.8984 42.3243 66.0351 42.1875C64.3554 42.5196 63.0078 42.5977 61.9726 42.461C60.9375 42.3243 60.0976 42.0508 59.4922 41.6211C58.9257 41.2501 58.457 40.7422 58.164 40.1368C57.9101 39.5899 57.7148 39.004 57.5976 38.3985C57.4414 37.5782 57.4414 36.7188 57.5976 35.8985C57.7539 35.0977 58.0664 34.3165 58.5156 33.6329C58.9453 32.9493 59.5117 32.3438 60.1757 31.875C61.6211 30.879 63.4179 30.5469 65.1367 30.918C65.8203 31.0938 66.4843 31.3672 67.1093 31.7188C67.7148 32.129 68.2421 32.6172 68.7109 33.1641L65.7812 37.6954C65.4296 37.4415 65.0781 37.2071 64.6875 37.0118C64.3554 36.8555 64.0039 36.7188 63.6328 36.6211C63.2617 36.5235 62.8515 36.504 62.4804 36.5821C62.207 36.6211 61.9726 36.7579 61.7968 36.9727C61.6601 37.1485 61.6211 37.3829 61.6601 37.5977C61.7383 37.9883 61.9922 38.2032 62.4218 38.3008C62.9492 38.379 63.4961 38.418 64.0234 38.379C64.6484 38.3399 65.332 38.3204 66.0547 38.3008C66.7578 38.2813 67.4804 38.3594 68.164 38.5352C68.8281 38.711 69.4531 39.0625 69.9414 39.5508C70.4687 40.0391 70.8203 40.8008 71.0156 41.8165C71.0937 42.3438 71.0937 42.8907 71.0156 43.418ZM71.7773 40.3321C71.7187 39.9805 71.6406 39.629 71.5625 39.2774C71.3476 38.1251 71.0937 37.0118 70.8398 35.918C70.5859 34.8243 70.332 33.8477 70.0976 32.9688C69.8242 31.9532 69.5312 30.9766 69.2578 30.0586L74.9804 28.7305C75.0586 29.5313 75.1562 30.3516 75.2929 31.2305C75.4296 32.0899 75.5859 32.9688 75.7421 33.8282C75.8984 34.6875 76.0742 35.4688 76.25 36.2305C76.4257 36.9922 76.582 37.6563 76.7187 38.2422C76.875 38.9258 77.0117 39.5508 77.1875 40.1368L71.9531 41.3868C71.8945 41.0157 71.8359 40.6641 71.7773 40.3321ZM78.0468 44.1993C77.9492 44.5118 77.7929 44.8047 77.5586 45.0391C77.3242 45.3126 77.0507 45.5274 76.7382 45.7032C76.4062 45.8985 76.0351 46.0157 75.6445 46.0938C75.2539 46.1719 74.8632 46.1915 74.4726 46.1329C74.1211 46.0938 73.7695 45.9766 73.457 45.8204C73.164 45.6641 72.9101 45.4688 72.6953 45.2149C72.5 44.9805 72.3633 44.6876 72.3047 44.3946C72.2461 44.0821 72.2656 43.7696 72.3632 43.4571C72.4609 43.1446 72.6367 42.8711 72.8515 42.6368C73.0859 42.3633 73.3789 42.1485 73.6914 41.9727C74.0429 41.7774 74.414 41.6602 74.7851 41.5821C75.1757 41.504 75.5664 41.4844 75.9375 41.543C76.289 41.5821 76.6211 41.6993 76.9531 41.836C77.2461 41.9727 77.5 42.168 77.7148 42.4219C77.9101 42.6563 78.0468 42.9493 78.1054 43.2618C78.1445 43.5938 78.125 43.8868 78.0468 44.1993Z" fill="#5A9AAF"/>
</g>
<defs>
<clipPath id="clip0_173_197">
<rect width="100" height="100" fill="white"/>
</clipPath>
</defs>
</svg>
