<svg width="30" height="30" viewBox="0 0 30 30" fill="none" xmlns="http://www.w3.org/2000/svg">
<g clip-path="url(#clip0_32_1385)">
<path d="M25.5469 15.2344C25.5469 14.5871 25.0222 14.0625 24.375 14.0625C23.7278 14.0625 23.2031 14.5871 23.2031 15.2344C23.2031 19.7576 19.5232 23.4375 15 23.4375C10.4768 23.4375 6.79688 19.7576 6.79688 15.2344C6.79688 14.5871 6.27223 14.0625 5.625 14.0625C4.97777 14.0625 4.45312 14.5871 4.45312 15.2344C4.45312 20.6538 8.56207 25.1309 13.8281 25.7158V27.6562H10.3125C9.66527 27.6562 9.14062 28.1809 9.14062 28.8281C9.14062 29.4754 9.66527 30 10.3125 30H19.6875C20.3347 30 20.8594 29.4754 20.8594 28.8281C20.8594 28.1809 20.3347 27.6562 19.6875 27.6562H16.1719V25.7158C21.4379 25.1309 25.5469 20.6538 25.5469 15.2344Z" fill="#457B9D"/>
<path d="M15 21.0938C11.7691 21.0938 9.14062 18.4652 9.14062 15.2344V5.85938C9.14062 2.62852 11.7691 0 15 0C18.2309 0 20.8594 2.62852 20.8594 5.85938V15.2344C20.8594 18.4652 18.2309 21.0938 15 21.0938ZM15 2.34375C13.0615 2.34375 11.4844 3.92086 11.4844 5.85938V15.2344C11.4844 17.1729 13.0615 18.75 15 18.75C16.9385 18.75 18.5156 17.1729 18.5156 15.2344V5.85938C18.5156 3.92086 16.9385 2.34375 15 2.34375Z" fill="#457B9D"/>
<path d="M5.625 11.7188C4.97777 11.7188 4.45312 11.1941 4.45312 10.5469V8.20312C4.45312 7.5559 4.97777 7.03125 5.625 7.03125C6.27223 7.03125 6.79688 7.5559 6.79688 8.20312V10.5469C6.79688 11.1941 6.27223 11.7188 5.625 11.7188Z" fill="#457B9D"/>
<path d="M1.17188 14.0625C0.524648 14.0625 0 13.5379 0 12.8906V5.85938C0 5.21215 0.524648 4.6875 1.17188 4.6875C1.8191 4.6875 2.34375 5.21215 2.34375 5.85938V12.8906C2.34375 13.5379 1.8191 14.0625 1.17188 14.0625Z" fill="#457B9D"/>
<path d="M24.375 11.7188C23.7278 11.7188 23.2031 11.1941 23.2031 10.5469V8.20312C23.2031 7.5559 23.7278 7.03125 24.375 7.03125C25.0222 7.03125 25.5469 7.5559 25.5469 8.20312V10.5469C25.5469 11.1941 25.0222 11.7188 24.375 11.7188Z" fill="#457B9D"/>
<path d="M28.8281 14.0625C28.1809 14.0625 27.6562 13.5379 27.6562 12.8906V5.85938C27.6562 5.21215 28.1809 4.6875 28.8281 4.6875C29.4754 4.6875 30 5.21215 30 5.85938V12.8906C30 13.5379 29.4754 14.0625 28.8281 14.0625Z" fill="#457B9D"/>
</g>
<defs>
<clipPath id="clip0_32_1385">
<rect width="30" height="30" fill="white"/>
</clipPath>
</defs>
</svg>
