<svg width="114" height="114" viewBox="0 0 114 114" fill="none" xmlns="http://www.w3.org/2000/svg">
<path d="M107.291 67.9546C105.05 64.4691 102.81 61.108 100.569 57.6225C100.071 56.8756 100.071 56.3777 100.569 55.6308C102.81 52.2698 104.926 48.9087 107.167 45.5477C109.781 41.5643 108.411 37.7053 103.93 36.087C100.196 34.7177 96.461 33.2239 92.7265 31.8546C91.9796 31.6056 91.6062 31.1077 91.6062 30.2363C91.4817 26.1284 91.2327 22.0204 90.9838 18.037C90.7348 13.6801 87.3738 11.1905 83.1414 12.3108C79.1579 13.3067 75.1745 14.427 71.3155 15.5473C70.4441 15.7963 69.9462 15.5473 69.3238 14.9249C66.8341 11.6884 64.22 8.57631 61.7303 5.46424C58.9917 1.97872 54.7593 1.97872 51.8962 5.46424C49.4065 8.57631 46.7924 11.6884 44.4272 14.8004C43.8048 15.6718 43.1824 15.7963 42.1865 15.5473C38.3276 14.427 34.4686 13.4311 31.73 12.6842C26.3772 11.4394 23.1407 13.5556 22.8917 18.037C22.6428 22.1449 22.3938 26.2529 22.2693 30.4853C22.2693 31.3567 21.8959 31.7301 21.149 32.1036C17.29 33.5973 13.431 35.0911 9.57207 36.5849C5.58862 38.2032 4.34379 42.0622 6.70896 45.6722C8.94965 49.1577 11.1903 52.5187 13.431 56.0042C13.9289 56.7511 13.9289 57.2491 13.431 58.1205C11.0659 61.606 8.82516 65.0915 6.58447 68.7015C4.46827 72.0625 5.83757 76.046 9.57205 77.5398C13.431 79.0336 17.4145 80.5274 21.2734 82.0212C22.1448 82.2701 22.3938 82.7681 22.3938 83.6394C22.5182 87.6229 23.0162 91.4818 23.0162 95.4653C23.0162 99.4487 26.5017 103.059 31.3565 101.565C35.2155 100.32 39.0744 99.4487 42.9334 98.3284C43.6803 98.0794 44.1782 98.2039 44.6762 98.9508C47.2903 102.187 49.78 105.299 52.3941 108.536C55.2572 112.021 59.3651 112.021 62.1037 108.536C64.7179 105.299 67.2075 102.187 69.8217 98.9508C70.3196 98.3284 70.693 98.0794 71.5644 98.3284C75.5479 99.4487 79.5313 100.445 83.5148 101.565C87.6227 102.685 91.1082 100.196 91.2327 95.9632C91.4817 91.8553 91.7306 87.7473 91.8551 83.5149C91.8551 82.5191 92.353 82.1456 93.0999 81.8967C96.8344 80.5274 100.693 79.0336 104.428 77.5398C108.411 75.548 109.656 71.5646 107.291 67.9546ZM77.5396 47.5394L52.6431 72.436C52.0207 73.0584 51.1493 73.5563 50.2779 73.6808C50.029 73.6808 49.6555 73.8053 49.4066 73.8053C48.2862 73.8053 47.0414 73.3074 46.17 72.436L35.9624 62.2284C34.2197 60.4856 34.2197 57.6225 35.9624 55.8797C37.7052 54.137 40.5683 54.137 42.3111 55.8797L49.2821 62.8508L70.9421 41.1908C72.6848 39.448 75.5479 39.448 77.2907 41.1908C79.2824 42.9335 79.2824 45.7967 77.5396 47.5394Z" fill="#5A9AAF"/>
</svg>
