<svg width="80" height="80" viewBox="0 0 80 80" fill="none" xmlns="http://www.w3.org/2000/svg">
<g clip-path="url(#clip0_32_1750)">
<path d="M32.0002 61.3334C30.9428 61.3334 29.9242 60.9147 29.1722 60.1614L18.5055 49.4947C16.9428 47.9334 16.9428 45.4 18.5055 43.8387C20.0668 42.276 22.6002 42.276 24.1615 43.8387L31.5668 51.244L52.7988 22.9334C54.1268 21.1654 56.6362 20.8094 58.3988 22.1334C60.1668 23.4587 60.5255 25.9667 59.2002 27.7334L35.2002 59.7334C34.5055 60.6614 33.4402 61.2414 32.2842 61.3227C32.1895 61.3294 32.0935 61.3334 32.0002 61.3334Z" fill="#5A9AAF"/>
<path d="M8 41.3334H1.33333C0.596 41.3334 0 40.7374 0 40C0 39.2627 0.596 38.6667 1.33333 38.6667H8C8.73733 38.6667 9.33333 39.2627 9.33333 40C9.33333 40.7374 8.73733 41.3334 8 41.3334Z" fill="#A8DADC"/>
<path d="M6.51585 60.6667C6.05451 60.6667 5.60651 60.428 5.35985 60C4.99185 59.3613 5.21051 58.5467 5.84785 58.1787L11.6212 54.8453C12.2572 54.4787 13.0732 54.6947 13.4425 55.3333C13.8105 55.972 13.5918 56.7867 12.9545 57.1547L7.18118 60.488C6.97185 60.6093 6.74251 60.6667 6.51585 60.6667Z" fill="#A8DADC"/>
<path d="M20.6654 74.8187C20.4388 74.8187 20.2094 74.7613 20.0001 74.64C19.3614 74.272 19.1428 73.456 19.5121 72.8187L22.8454 67.0453C23.2148 66.4067 24.0294 66.188 24.6668 66.5573C25.3041 66.9267 25.5241 67.7413 25.1548 68.3787L21.8214 74.152C21.5734 74.5787 21.1268 74.8187 20.6654 74.8187Z" fill="#A8DADC"/>
<path d="M39.9998 80C39.2625 80 38.6665 79.404 38.6665 78.6667V72C38.6665 71.2627 39.2625 70.6667 39.9998 70.6667C40.7372 70.6667 41.3332 71.2627 41.3332 72V78.6667C41.3332 79.404 40.7372 80 39.9998 80Z" fill="#A8DADC"/>
<path d="M59.3345 74.8187C58.8732 74.8187 58.4252 74.58 58.1785 74.152L54.8452 68.3787C54.4772 67.74 54.6959 66.9253 55.3332 66.5573C55.9679 66.1893 56.7852 66.4067 57.1545 67.0453L60.4879 72.8187C60.8559 73.4573 60.6372 74.272 59.9999 74.64C59.7905 74.7613 59.5612 74.8187 59.3345 74.8187Z" fill="#A8DADC"/>
<path d="M73.4842 60.6666C73.2575 60.6666 73.0282 60.6093 72.8188 60.488L67.0455 57.1546C66.4068 56.7866 66.1882 55.9706 66.5575 55.3333C66.9255 54.6946 67.7428 54.4773 68.3788 54.8453L74.1522 58.1786C74.7908 58.5466 75.0095 59.3626 74.6402 60C74.3922 60.428 73.9455 60.6666 73.4842 60.6666Z" fill="#A8DADC"/>
<path d="M78.6665 41.3334H71.9998C71.2625 41.3334 70.6665 40.7374 70.6665 40C70.6665 39.2627 71.2625 38.6667 71.9998 38.6667H78.6665C79.4038 38.6667 79.9998 39.2627 79.9998 40C79.9998 40.7374 79.4038 41.3334 78.6665 41.3334Z" fill="#A8DADC"/>
<path d="M67.7131 25.3333C67.2518 25.3333 66.8038 25.0946 66.5571 24.6666C66.1891 24.028 66.4078 23.2133 67.0451 22.8453L72.8184 19.512C73.4544 19.1426 74.2718 19.3613 74.6398 20C75.0078 20.6386 74.7891 21.4533 74.1518 21.8213L68.3784 25.1546C68.1691 25.276 67.9398 25.3333 67.7131 25.3333Z" fill="#A8DADC"/>
<path d="M55.9984 13.6213C55.7718 13.6213 55.5424 13.564 55.3331 13.4427C54.6944 13.0747 54.4758 12.2587 54.8451 11.6213L58.1784 5.848C58.5464 5.20933 59.3624 4.99066 59.9998 5.36C60.6371 5.72933 60.8571 6.544 60.4878 7.18133L57.1544 12.9547C56.9064 13.3813 56.4598 13.6213 55.9984 13.6213Z" fill="#A8DADC"/>
<path d="M39.9998 9.33333C39.2625 9.33333 38.6665 8.73733 38.6665 8V1.33333C38.6665 0.596 39.2625 0 39.9998 0C40.7372 0 41.3332 0.596 41.3332 1.33333V8C41.3332 8.73733 40.7372 9.33333 39.9998 9.33333Z" fill="#A8DADC"/>
<path d="M24.0015 13.6213C23.5402 13.6213 23.0922 13.3827 22.8455 12.9547L19.5122 7.18135C19.1442 6.54268 19.3629 5.72802 20.0002 5.36002C20.6362 4.99202 21.4535 5.20935 21.8215 5.84802L25.1549 11.6213C25.5229 12.26 25.3042 13.0747 24.6669 13.4427C24.4575 13.564 24.2282 13.6213 24.0015 13.6213Z" fill="#A8DADC"/>
<path d="M12.2869 25.3334C12.0602 25.3334 11.8309 25.276 11.6216 25.1547L5.84824 21.8214C5.20958 21.4534 4.99091 20.6374 5.36024 20C5.72824 19.3614 6.54424 19.1414 7.18158 19.512L12.9549 22.8454C13.5936 23.2134 13.8122 24.0294 13.4429 24.6667C13.1949 25.0947 12.7482 25.3334 12.2869 25.3334Z" fill="#A8DADC"/>
</g>
<defs>
<clipPath id="clip0_32_1750">
<rect width="80" height="80" fill="white"/>
</clipPath>
</defs>
</svg>
