<svg width="54" height="54" viewBox="0 0 54 54" fill="none" xmlns="http://www.w3.org/2000/svg">
<path d="M40.0782 18.6367C39.3489 15.7213 37.6664 13.1331 35.2981 11.2832C32.9297 9.43323 30.0112 8.42753 27.006 8.42578C24.0008 8.42404 21.0811 9.42635 18.7106 11.2735C16.3401 13.1207 14.6547 15.707 13.9219 18.6215C10.4657 18.9459 7.26716 20.5892 4.99083 23.2102C2.71451 25.8311 1.53533 29.2283 1.69823 32.6959C1.86114 36.1636 3.3536 39.4352 5.86561 41.8312C8.37762 44.2273 11.7161 45.5635 15.1876 45.5624H20.2501C20.6976 45.5624 21.1268 45.3846 21.4433 45.0682C21.7598 44.7517 21.9376 44.3225 21.9376 43.8749C21.9376 43.4274 21.7598 42.9981 21.4433 42.6817C21.1268 42.3652 20.6976 42.1874 20.2501 42.1874H15.1876C13.8579 42.1913 12.5406 41.9333 11.3106 41.428C10.0807 40.9228 8.9624 40.1802 8.01946 39.2428C6.11512 37.3495 5.04087 34.7773 5.03304 32.092C5.0252 29.4066 6.08443 26.8282 7.9777 24.9239C9.87097 23.0195 12.4432 21.9453 15.1285 21.9374C15.5615 21.97 15.9912 21.8406 16.3342 21.5743C16.6772 21.3081 16.909 20.9239 16.9848 20.4963C17.3284 18.0867 18.5298 15.8819 20.3684 14.2869C22.207 12.6919 24.5593 11.8137 26.9933 11.8137C29.4273 11.8137 31.7797 12.6919 33.6182 14.2869C35.4568 15.8819 36.6583 18.0867 37.0019 20.4963C37.0901 20.909 37.3189 21.2783 37.6491 21.5411C37.9794 21.804 38.3906 21.944 38.8126 21.9374C41.4979 21.9374 44.0732 23.0042 45.972 24.903C47.8708 26.8018 48.9376 29.3771 48.9376 32.0624C48.9376 34.7477 47.8708 37.3231 45.972 39.2219C44.0732 41.1207 41.4979 42.1874 38.8126 42.1874H33.7501C33.3025 42.1874 32.8733 42.3652 32.5568 42.6817C32.2404 42.9981 32.0626 43.4274 32.0626 43.8749C32.0626 44.3225 32.2404 44.7517 32.5568 45.0682C32.8733 45.3846 33.3025 45.5624 33.7501 45.5624H38.8126C42.2586 45.5264 45.5605 44.1737 48.0414 41.7817C50.5224 39.3897 51.9946 36.1395 52.1564 32.697C52.3182 29.2546 51.1574 25.8805 48.9117 23.2664C46.6661 20.6522 43.5057 18.9958 40.0782 18.6367Z" fill="#1D3557"/>
<path d="M34.2445 33.2554C34.5627 33.5628 34.989 33.7329 35.4314 33.7291C35.8739 33.7252 36.2971 33.5478 36.61 33.2349C36.9229 32.922 37.1004 32.4988 37.1042 32.0563C37.1081 31.6139 36.938 31.1876 36.6306 30.8693L28.1931 22.4318C27.8766 22.1155 27.4475 21.9377 27 21.9377C26.5525 21.9377 26.1234 22.1155 25.807 22.4318L17.3695 30.8693C17.0621 31.1876 16.892 31.6139 16.8958 32.0563C16.8997 32.4988 17.0771 32.922 17.39 33.2349C17.7029 33.5478 18.1261 33.7252 18.5686 33.7291C19.011 33.7329 19.4373 33.5628 19.7556 33.2554L25.3125 27.6985V48.9374C25.3125 49.3849 25.4903 49.8142 25.8068 50.1306C26.1232 50.4471 26.5525 50.6249 27 50.6249C27.4476 50.6249 27.8768 50.4471 28.1933 50.1306C28.5097 49.8142 28.6875 49.3849 28.6875 48.9374V27.6985L34.2445 33.2554Z" fill="#1D3557"/>
</svg>
